<?xml version="1.0" standalone="no"?>
<!DOCTYPE svg PUBLIC "-//W3C//DTD SVG 20010904//EN"
 "http://www.w3.org/TR/2001/REC-SVG-20010904/DTD/svg10.dtd">
<svg version="1.0" xmlns="http://www.w3.org/2000/svg"
 width="495.000000pt" height="499.000000pt" viewBox="0 0 495.000000 499.000000"
 preserveAspectRatio="xMidYMid meet">

<g transform="translate(0.000000,499.000000) scale(0.100000,-0.100000)"
fill="#000000" stroke="none">
<path d="M3827 4600 c-27 -5 -51 -11 -54 -14 -3 -3 11 -112 31 -243 20 -131
36 -242 36 -246 0 -5 -17 5 -38 21 -163 129 -464 271 -707 332 -321 82 -702
79 -1034 -6 -250 -65 -521 -198 -736 -363 -94 -72 -261 -237 -345 -342 -446
-557 -572 -1347 -319 -2009 45 -118 82 -147 129 -100 26 26 26 33 -13 137 -78
206 -116 388 -124 604 -32 827 456 1580 1220 1884 233 92 460 135 718 135 320
-1 585 -63 869 -205 121 -61 331 -198 319 -209 -2 -2 -107 -11 -234 -20 -324
-23 -295 -15 -295 -87 l0 -60 58 6 c31 3 198 17 371 30 173 14 315 26 317 27
5 6 -110 738 -115 737 -3 -1 -28 -5 -54 -9z"/>
<path d="M2708 3883 c-37 -45 -1038 -1786 -1038 -1807 0 -53 1 -53 445 10 228
32 416 56 419 53 3 -2 -45 -229 -106 -503 -81 -363 -108 -504 -101 -515 6 -9
24 -16 43 -16 32 0 42 14 596 830 310 457 564 837 564 846 0 8 -6 24 -14 34
-14 19 -24 18 -460 -40 -245 -32 -449 -56 -452 -52 -4 4 42 261 101 572 103
545 107 566 90 585 -22 25 -67 26 -87 3z"/>
<path d="M4407 3362 c-23 -26 -22 -37 18 -141 150 -387 164 -836 40 -1245
-248 -818 -1002 -1376 -1858 -1376 -378 0 -750 112 -1059 319 -110 73 -142
101 -117 101 8 0 127 9 264 20 138 11 251 20 253 20 1 0 2 27 2 60 0 51 -3 60
-17 60 -50 -1 -724 -57 -727 -61 -2 -2 21 -169 52 -370 l56 -365 55 8 c30 5
57 11 60 13 2 3 -12 112 -33 242 -20 131 -36 241 -36 245 0 4 42 -21 93 -56
536 -363 1198 -453 1819 -246 656 218 1164 767 1332 1439 48 188 61 302 60
521 0 218 -12 314 -59 503 -30 116 -91 285 -113 310 -20 22 -64 22 -85 -1z"/>
</g>
</svg>
