<?xml version="1.0" standalone="no"?>
<!DOCTYPE svg PUBLIC "-//W3C//DTD SVG 20010904//EN"
 "http://www.w3.org/TR/2001/REC-SVG-20010904/DTD/svg10.dtd">
<svg version="1.0" xmlns="http://www.w3.org/2000/svg"
 width="488.000000pt" height="491.000000pt" viewBox="0 0 488.000000 491.000000"
 preserveAspectRatio="xMidYMid meet">

<g transform="translate(0.000000,491.000000) scale(0.100000,-0.100000)"
fill="#000000" stroke="none">
<path d="M3747 4520 c-27 -5 -51 -11 -54 -14 -3 -3 11 -112 31 -243 20 -131
36 -242 36 -246 0 -5 -17 5 -38 21 -163 129 -464 271 -707 332 -321 82 -702
79 -1034 -6 -250 -65 -520 -198 -736 -363 -84 -64 -266 -242 -338 -331 -289
-358 -457 -829 -457 -1284 0 -264 75 -639 161 -808 21 -41 55 -56 87 -39 37
19 35 46 -11 179 -55 157 -92 320 -108 471 -14 140 -7 381 16 511 118 666 573
1227 1198 1475 233 92 460 135 718 135 320 -1 585 -63 869 -205 121 -61 331
-198 319 -209 -2 -2 -107 -11 -234 -20 -324 -23 -295 -15 -295 -87 l0 -60 58
6 c31 3 198 17 371 30 173 14 315 26 317 27 5 6 -110 738 -115 737 -3 -1 -28
-5 -54 -9z"/>
<path d="M2325 3848 c-14 -88 -106 -344 -173 -481 -38 -78 -135 -259 -217
-401 -255 -446 -301 -566 -312 -801 -9 -192 27 -332 122 -475 96 -145 286
-282 465 -335 21 -7 15 4 -33 56 -164 181 -211 341 -158 534 23 82 206 528
218 532 18 6 116 -158 149 -248 19 -52 38 -103 43 -114 7 -16 18 1 64 95 101
209 137 355 146 594 l6 169 94 -98 c163 -171 248 -302 309 -475 46 -130 64
-239 64 -370 -2 -232 -80 -417 -259 -613 -60 -65 -74 -87 -54 -87 5 0 44 12
87 26 275 89 469 314 530 614 13 66 16 115 11 220 -17 412 -178 756 -553 1180
-136 154 -507 520 -527 520 -10 0 -17 -14 -22 -42z"/>
<path d="M4327 3282 c-23 -26 -22 -37 18 -141 237 -613 132 -1327 -273 -1858
-451 -593 -1208 -874 -1941 -723 -223 47 -472 151 -663 279 -110 73 -142 101
-117 101 8 0 127 9 264 20 138 11 251 20 253 20 1 0 2 27 2 60 0 51 -3 60 -17
60 -50 -1 -724 -57 -727 -61 -2 -2 21 -169 52 -370 l55 -365 56 8 c30 5 57 11
60 13 2 3 -12 112 -33 242 -20 131 -36 241 -36 245 0 4 42 -21 93 -56 535
-362 1200 -453 1815 -247 292 97 555 257 775 470 531 514 744 1272 561 1996
-30 118 -90 283 -112 308 -20 22 -64 22 -85 -1z"/>
</g>
</svg>
