<?xml version="1.0" standalone="no"?>
<!DOCTYPE svg PUBLIC "-//W3C//DTD SVG 20010904//EN"
 "http://www.w3.org/TR/2001/REC-SVG-20010904/DTD/svg10.dtd">
<svg version="1.0" xmlns="http://www.w3.org/2000/svg"
 width="487.000000pt" height="491.000000pt" viewBox="0 0 487.000000 491.000000"
 preserveAspectRatio="xMidYMid meet">

<g transform="translate(0.000000,491.000000) scale(0.100000,-0.100000)"
fill="#000000" stroke="none">
<path d="M3657 4520 c-27 -5 -50 -10 -52 -12 -2 -2 12 -104 31 -228 19 -124
33 -233 32 -242 -2 -14 -21 -5 -93 43 -344 231 -732 349 -1145 349 -1060 0
-1927 -771 -2051 -1824 -7 -63 -10 -176 -6 -305 6 -230 28 -360 93 -562 63
-195 83 -223 143 -204 39 12 36 49 -17 208 -128 383 -142 731 -47 1109 198
778 851 1349 1658 1449 156 19 454 7 602 -25 244 -51 485 -152 685 -284 58
-39 111 -76 118 -84 10 -12 -23 -17 -226 -32 -130 -9 -252 -20 -271 -23 l-33
-6 6 -55 c4 -31 8 -57 9 -58 4 -4 730 55 734 60 5 4 -91 658 -104 714 -3 12
-8 21 -12 21 -3 -1 -28 -5 -54 -9z"/>
<path d="M1812 4103 c-21 -31 -817 -1401 -840 -1446 -13 -25 -13 -31 0 -44 13
-12 56 -8 357 35 276 39 344 46 348 35 3 -7 -36 -196 -85 -421 -80 -358 -89
-409 -76 -422 11 -11 19 -12 32 -4 15 10 859 1241 919 1342 47 79 49 78 -367
23 -201 -27 -368 -47 -372 -45 -13 9 -10 28 78 492 47 249 83 459 80 467 -9
25 -53 18 -74 -12z"/>
<path d="M4246 3287 c-25 -19 -18 -62 37 -222 212 -610 85 -1310 -331 -1826
-82 -101 -270 -280 -369 -352 -464 -332 -1050 -446 -1601 -312 -209 51 -418
144 -609 271 -118 78 -136 94 -106 94 35 0 517 41 520 44 2 2 1 29 -3 60 -5
42 -11 56 -23 56 -68 -2 -712 -58 -717 -63 -4 -4 18 -167 48 -364 l54 -358 58
2 c32 1 60 3 61 5 2 2 -14 113 -35 248 -21 135 -37 246 -36 247 1 1 44 -28 96
-64 128 -87 361 -201 513 -251 343 -112 693 -131 1063 -57 243 49 498 154 708
291 501 329 833 857 911 1449 19 148 19 402 0 547 -22 170 -78 379 -139 519
-21 49 -62 64 -100 36z"/>
<path d="M2926 2992 c-40 -158 -115 -336 -238 -564 -245 -457 -285 -558 -295
-753 -9 -182 37 -330 140 -456 73 -90 222 -192 311 -213 28 -7 27 -5 -23 55
-103 123 -137 214 -128 339 6 81 21 130 117 374 l63 160 23 -30 c38 -46 90
-154 109 -221 10 -35 21 -63 25 -63 9 0 76 144 102 220 35 103 60 251 61 374
l2 118 73 -77 c188 -199 292 -443 292 -688 0 -176 -64 -346 -184 -491 -62 -75
-76 -96 -59 -96 4 0 39 12 78 27 199 75 340 240 396 464 19 74 21 102 16 229
-14 360 -156 658 -492 1035 -105 118 -325 344 -346 355 -13 8 -20 -7 -43 -98z"/>
</g>
</svg>
